<?xml version="1.0" encoding="UTF-8"?>
<svg version="1.1" viewBox="0 0 549 329" xmlns="http://www.w3.org/2000/svg">
  <title>LAMBRO</title>
  <path transform="translate(274.19 164.4) scale(1 -1) translate(-274.19 -164.4)" d="m179.63 88.066 36.037 1.916c-6.8427 3.1747-12.856 8.3427-17.075 15.275-11.328 18.613-5.4213 42.888 13.192 54.215 18.617 11.331 42.892 5.424 54.22-13.189 2.16-3.548 3.6947-7.304 4.6307-11.136 14.803 12.949 32.933 27.512 54.044 42.124l-30.605 34.631c-32.433-8.5933-63.869-13.129-63.869-13.129s65.844 64.713 110.83 76.695c48.888 13.019 74.435 17.579 74.435 17.579l-3.6671-5.7547c-5.617-1.5579-20.717-5.7559-35.968-10.081l-1.8937-0.53749c-11.674-3.3164-23.211-6.6463-30.42-8.8618-12.839-3.9457-35.672-21.139-41.813-25.876l-0.15934-0.12362c5.6435 4.2826 27.872 20.106 57.494 27.66 23.048 5.878 40.517 10.427 49.553 12.793l-20.487-32.126c-26.647-16.668-58.512-28.267-86.103-36.063l28.819-32.605c29.167 19.648 63.679 39.107 102.71 54.553-2.5067 2.3653-4.7413 5.1027-6.62 8.1893-11.329 18.615-5.4227 42.888 13.195 54.219 18.615 11.328 42.888 5.4213 54.216-13.192 5.408-8.8853 6.888-19.057 4.9373-28.488l49.119 38.167-15.825 2.132-4.996 31.745s-130.29-23.779-199.52-43.071c-53.067-14.788-117.65-83.348-166.06-121.26l-22.412 9.2387-84.468-45.14 79.784 5.6014 43.227-24.013 1.5133-22.084zm296.8 150.68c6.084 3.7067 10.411 9.2107 12.699 15.407 3.1253 8.42 2.4987 18.113-2.5347 26.377-8.7253 14.34-27.435 18.888-41.775 10.164-14.348-8.7253-18.897-27.435-10.172-41.776 2.2813-3.7427 5.2347-6.816 8.62-9.164 2.7293-1.9027 5.728-3.3187 8.8813-4.2293 2.3347-0.67733 4.744-1.0733 7.1747-1.1773l0.006667-8e-3c5.8093-0.25333 11.752 1.164 17.1 4.4067zm-17.383 7.3987c-5.728 0.484-11.141 3.6013-14.356 8.8893-5.3533 8.7907-2.5573 20.26 6.2427 25.615 8.792 5.3547 20.26 2.5653 25.616-6.2347 1.5947-2.6093 2.4667-5.4653 2.6693-8.3147 0.5-6.7627-2.7227-13.541-8.904-17.308-3.5213-2.1467-7.4587-2.9827-11.268-2.6467zm-185.17-122.09c0.712 0.58533 23.732 19.551 60.131 42.657 2.0707 1.316 4.1853 2.6413 6.34 3.9827 30.356 18.847 68.971 39.827 111.24 55.624-3.9773 0.932-7.8147 2.484-11.351 4.6107-20.997-8.4653-63.377-27.14-104.64-54.869-2.048-1.3787-4.0973-2.7773-6.1427-4.204-19.907-13.865-39.285-29.84-55.583-47.801zm-25.776-24.254c10.083 6.1373 15.332 17.196 14.52 28.211-0.336 4.66-1.76 9.3067-4.356 13.564-8.724 14.348-27.427 18.897-41.775 10.164-14.348-8.724-18.896-27.435-10.171-41.775 5.2413-8.6133 14.071-13.692 23.408-14.489 6.2107-0.53733 12.64 0.828 18.373 4.3253zm-17.383 7.3893c-5.7187 0.48533-11.141 3.6027-14.347 8.8893-5.3547 8.792-2.5733 20.261 6.2253 25.616 8.8 5.3533 20.277 2.564 25.632-6.2347 1.588-2.6107 2.46-5.4587 2.6693-8.3147 0.492-6.756-2.7227-13.543-8.912-17.308-3.512-2.1333-7.4573-2.976-11.268-2.648zm-230.73-107.19 168.67 61.596-2.9307 39.272-33.536 20.647-132.21-121.51z" fill="#e84142" fill-rule="nonzero" />
</svg>
